<svg id="visual" viewBox="0 0 900 600" width="900" height="600" xmlns="http://www.w3.org/2000/svg" xmlns:xlink="http://www.w3.org/1999/xlink" version="1.1"><rect x="0" y="0" width="900" height="600" fill="#001220"></rect><path d="M0 380L21.5 375.3C43 370.7 86 361.3 128.8 359.2C171.7 357 214.3 362 257.2 368.7C300 375.3 343 383.7 385.8 389.5C428.7 395.3 471.3 398.7 514.2 392.5C557 386.3 600 370.7 642.8 374.5C685.7 378.3 728.3 401.7 771.2 401.3C814 401 857 377 878.5 365L900 353L900 601L878.5 601C857 601 814 601 771.2 601C728.3 601 685.7 601 642.8 601C600 601 557 601 514.2 601C471.3 601 428.7 601 385.8 601C343 601 300 601 257.2 601C214.3 601 171.7 601 128.8 601C86 601 43 601 21.5 601L0 601Z" fill="#fa7268"></path><path d="M0 470L21.5 458C43 446 86 422 128.8 411.7C171.7 401.3 214.3 404.7 257.2 404.3C300 404 343 400 385.8 400.2C428.7 400.3 471.3 404.7 514.2 411.2C557 417.7 600 426.3 642.8 437C685.7 447.7 728.3 460.3 771.2 462C814 463.7 857 454.3 878.5 449.7L900 445L900 601L878.5 601C857 601 814 601 771.2 601C728.3 601 685.7 601 642.8 601C600 601 557 601 514.2 601C471.3 601 428.7 601 385.8 601C343 601 300 601 257.2 601C214.3 601 171.7 601 128.8 601C86 601 43 601 21.5 601L0 601Z" fill="#ef5f67"></path><path d="M0 499L21.5 489.2C43 479.3 86 459.7 128.8 460.5C171.7 461.3 214.3 482.7 257.2 488.2C300 493.7 343 483.3 385.8 472.8C428.7 462.3 471.3 451.7 514.2 456.7C557 461.7 600 482.3 642.8 486.2C685.7 490 728.3 477 771.2 467.7C814 458.3 857 452.7 878.5 449.8L900 447L900 601L878.5 601C857 601 814 601 771.2 601C728.3 601 685.7 601 642.8 601C600 601 557 601 514.2 601C471.3 601 428.7 601 385.8 601C343 601 300 601 257.2 601C214.3 601 171.7 601 128.8 601C86 601 43 601 21.5 601L0 601Z" fill="#e34c67"></path><path d="M0 531L21.5 524.3C43 517.7 86 504.3 128.8 497.8C171.7 491.3 214.3 491.7 257.2 495.5C300 499.3 343 506.7 385.8 506.2C428.7 505.7 471.3 497.3 514.2 494C557 490.7 600 492.3 642.8 500.8C685.7 509.3 728.3 524.7 771.2 524C814 523.3 857 506.7 878.5 498.3L900 490L900 601L878.5 601C857 601 814 601 771.2 601C728.3 601 685.7 601 642.8 601C600 601 557 601 514.2 601C471.3 601 428.7 601 385.8 601C343 601 300 601 257.2 601C214.3 601 171.7 601 128.8 601C86 601 43 601 21.5 601L0 601Z" fill="#d53867"></path><path d="M0 528L21.5 530.3C43 532.7 86 537.3 128.8 544.7C171.7 552 214.3 562 257.2 565C300 568 343 564 385.8 558.2C428.7 552.3 471.3 544.7 514.2 543.5C557 542.3 600 547.7 642.8 550.5C685.7 553.3 728.3 553.7 771.2 552C814 550.3 857 546.7 878.5 544.8L900 543L900 601L878.5 601C857 601 814 601 771.2 601C728.3 601 685.7 601 642.8 601C600 601 557 601 514.2 601C471.3 601 428.7 601 385.8 601C343 601 300 601 257.2 601C214.3 601 171.7 601 128.8 601C86 601 43 601 21.5 601L0 601Z" fill="#c62368"></path></svg>